<?xml version="1.0" encoding="UTF-8"?>
<svg xmlns="http://www.w3.org/2000/svg" version="1.1" viewBox="0 0 2063.43 1399.34">
  <!-- Generator: Adobe Illustrator 29.4.0, SVG Export Plug-In . SVG Version: 2.1.0 Build 152)  -->
  <defs>
    <style>
      .st0 {
        fill: none;
        stroke: #000;
        stroke-miterlimit: 10;
        stroke-width: 41px;
      }
    </style>
  </defs>
  <g id="Ring_copy">
    <path d="M1050.89,439.85c121.21-88.85,219.61-150.94,286.89-190.99,0,0,41.44-24.67,143.53-72.67,0,0,72.81-34.24,155.92-46.28,18.72-2.71,50.83-6.14,73.08,12.76.63.53,9.23,8,14.8,19.35,26.95,54.96-40.97,152.62-64.87,186.98-16.14,23.21-41.07,55.72-76.8,90.86-14.68-.17-29.36-.34-44.05-.51,14.32-14.28,32.09-34.01,49.65-59.54,11.43-16.61,89.87-133.2,57.64-171.42-22.02-26.12-87.2-5.58-156.34,16.38-48.16,15.3-80.81,31.43-140.67,62.05-75.12,38.43-131.99,73.24-169.26,96.16-35.81,22.02-67.49,43.13-88.27,56.89-14.5.67-26.75-.67-41.25,0Z"/>
    <path d="M1087.39,885.85h47c-24.94,19.17-61.82,47.19-107.07,80.34-59.21,43.37-134.21,98.09-227.66,156.81-159.13,100-234.78,125.28-269.97,135.82-131.79,39.46-169.96,13.98-184.04-.93-11.92-12.61-15.52-27.11-16.99-33.04-25.15-101.14,194.33-311.28,223.62-338.99h41.79c-33.26,33.67-58.66,64.24-76.8,87.7,0,0-62.61,80.46-86.42,151.04-1.5,4.43-5.8,17.6-4.83,34.54.35,6.18.71,12.42,3.7,18.59,7.55,15.6,26.98,20.57,34.6,22.53,45.07,11.54,109.75-13.33,160.33-35.05,48.81-20.96,78.3-35.99,78.3-35.99,86.49-44.09,152.37-84.85,181.09-102.93,54.93-34.58,124.57-81.03,203.35-140.43Z"/>
  </g>
  <g id="Type_copy_4">
    <path d="M299.77,655.54c0-110.24,70.31-194.3,172.93-194.3,48.14,0,86.15,17.22,115.92,46.85,38.01,39.96,55.11,101.97,54.48,174.32h-245.77c6.33,55.12,33.57,88.19,81.71,88.19,31.04,0,50.68-13.09,61.44-35.83h96.28c-17.1,64.77-72.21,114.37-158.99,114.37-110.22,0-178-84.06-178-193.61ZM397.96,619.71h143.79c-3.17-50.99-29.77-81.99-69.04-81.99-45.61,0-68.41,31.69-74.75,81.99Z"/>
    <path d="M897.74,793.34h-1.27c-22.17,33.76-50.04,54.43-101.98,54.43-66.51,0-115.29-38.58-115.29-110.93,0-81.3,58.91-101.97,132.39-111.62,60.18-8.96,84.88-19.29,84.88-46.85s-15.84-44.1-50.04-44.1c-38.01,0-56.38,19.29-58.91,48.23h-91.85c2.53-62.7,49.41-121.26,149.49-121.26,43.07,0,73.48,6.89,96.92,22.05,34.84,22.05,51.31,59.94,51.31,109.55v188.1c0,28.94,3.8,44.78,12.67,50.99v6.2h-96.92c-5.07-8.27-9.5-24.12-11.4-44.79ZM899.01,706.53v-47.54c-14.57,9.65-36.11,15.16-58.28,20.67-43.71,10.33-64.61,22.05-64.61,53.74s22.17,43.41,49.41,43.41c44.34,0,73.48-30.32,73.48-70.28Z"/>
    <polygon points="1162.64 753.32 1328.47 549.43 1328.47 471.58 1054.82 471.58 1054.82 555.54 1054.82 555.64 1204.25 555.54 1040.26 757.51 1040.26 838.12 1337.34 838.12 1337.34 753.38 1337.34 753.32 1162.64 753.32"/>
    <path d="M1647.41,471.58l-.07.36-1.19-.36-80.02,262.51-78.73-258.29-.9-4.22h-117.49l117.49,309.85c13.53,35,19.94,64.89,19.94,78.01-2.14,26.25-19.22,39.37-54.11,39.37-20.79,0-42.01-6.73-42.01-6.73v89.68c2.14.73,24.82,7.46,74.76,7.46,72.63,0,107.52-30.62,138.13-120.3l135.29-397.34h-111.08Z"/>
  </g>
  <g id="Ring_copy_2">
    <path class="st0" d="M1748.24,328.89c7.12-12.21,14.24-25.42,20.59-39.04,11.8-25.29,19.31-48.11,22.98-69.76,5.44-32.13,2.03-61-10.15-85.83-10.64-21.7-26.09-35.81-30.58-39.63-23.34-19.82-53.07-29.87-88.34-29.87-13.58,0-25.6,1.49-34.56,2.79-91.34,13.24-170.37,50.06-173.69,51.62-60.89,28.63-101,49.32-124.11,61.73-92.98-16.5-192-25.4-294.73-25.4-538.29,0-974.66,244.3-974.66,545.66,0,141.09,95.65,269.67,252.62,366.53-43.16,69.03-57.88,124.91-46.09,172.34,2.24,9.02,9.07,36.47,32.33,61.1,26.13,27.66,64.28,41.69,113.39,41.69,37.34,0,81.35-7.74,134.53-23.67,38.94-11.66,100.42-34.05,206.81-95.38,89,14.98,183.35,23.04,281.07,23.04,538.29,0,974.66-244.3,974.66-545.66,0-143.9-99.5-274.78-262.07-372.28Z"/>
  </g>
</svg>